<?xml version="1.0" standalone="no"?>
<!DOCTYPE svg PUBLIC "-//W3C//DTD SVG 20010904//EN"
 "http://www.w3.org/TR/2001/REC-SVG-20010904/DTD/svg10.dtd">
<svg version="1.0" xmlns="http://www.w3.org/2000/svg"
 width="560.000000pt" height="560.000000pt" viewBox="0 0 560.000000 560.000000"
 preserveAspectRatio="xMidYMid meet">
<metadata>
Created by potrace 1.14, written by Peter Selinger 2001-2017
</metadata>
<g transform="translate(0.000000,560.000000) scale(0.100000,-0.100000)"
fill="#000000" stroke="none">
<path d="M3095 5232 c-50 -24 -174 -59 -235 -67 -103 -13 -129 -17 -150 -20
-14 -2 -54 -6 -90 -10 -96 -9 -132 -13 -165 -19 -16 -3 -44 -8 -61 -10 -172
-30 -369 -140 -513 -286 -62 -63 -104 -126 -152 -224 -22 -45 -42 -73 -59 -80
-49 -21 -180 -100 -180 -108 0 -4 -4 -8 -10 -8 -34 0 -252 -179 -392 -322
-105 -106 -290 -335 -306 -377 -3 -9 -8 -18 -12 -21 -8 -7 -80 -130 -80 -137
0 -3 -10 -22 -22 -42 -13 -20 -23 -38 -23 -41 -1 -3 -13 -32 -29 -65 -37 -80
-40 -88 -71 -175 -15 -41 -29 -82 -32 -90 -7 -16 -11 -31 -17 -57 -3 -10 -5
-18 -7 -18 -1 0 -3 -9 -5 -20 -1 -11 -12 -56 -22 -100 -11 -44 -23 -98 -26
-120 -16 -99 -24 -161 -24 -175 0 -8 -3 -37 -7 -65 -3 -27 -5 -70 -4 -95 1
-39 0 -89 -2 -132 -1 -27 10 -186 16 -229 8 -62 34 -212 39 -234 2 -5 6 -23
10 -40 20 -82 77 -267 96 -310 5 -11 27 -63 50 -115 38 -84 56 -121 120 -235
14 -25 42 -69 125 -193 24 -36 155 -195 205 -247 61 -65 150 -147 230 -211 73
-60 264 -194 275 -194 3 0 29 -15 58 -33 29 -19 55 -34 59 -36 4 -1 45 -19 90
-40 46 -22 112 -50 148 -64 36 -13 74 -28 85 -32 11 -5 22 -9 25 -10 10 -2
126 -37 150 -45 36 -12 121 -30 153 -32 15 -1 27 -5 27 -9 0 -4 8 -6 17 -5 10
2 33 -1 53 -5 77 -18 174 -24 370 -24 195 0 273 5 375 24 25 5 45 6 45 3 0 -2
6 1 13 7 8 6 16 8 19 5 3 -3 26 0 49 6 24 7 52 14 62 16 106 20 488 160 533
195 6 5 37 23 70 40 32 18 99 58 148 90 49 33 93 59 98 59 4 0 8 4 8 8 0 4 23
25 51 46 65 48 81 62 136 113 24 24 48 43 53 43 5 0 10 4 12 9 2 5 40 49 85
97 82 89 135 151 163 194 8 12 21 28 28 36 6 7 12 17 12 23 0 6 4 11 8 11 5 0
15 12 23 28 8 15 17 29 20 32 10 8 91 149 114 197 11 24 23 43 28 43 4 0 7 6
7 13 0 7 12 38 26 68 76 158 157 423 179 579 9 66 16 110 21 134 3 17 16 254
16 291 -1 72 -14 238 -23 296 -6 41 -12 83 -13 94 -1 11 -6 34 -9 50 -4 17 -9
39 -11 50 -3 11 -9 40 -15 65 -7 25 -14 54 -16 66 -18 79 -86 264 -142 381
-19 40 -33 74 -31 77 2 2 -4 12 -12 22 -9 11 -26 39 -40 64 -13 25 -28 48 -34
52 -6 4 -8 8 -4 8 10 0 -89 146 -167 245 -126 162 -332 361 -471 455 -27 19
-50 37 -52 42 -2 4 -7 8 -12 8 -5 0 -35 17 -67 38 -32 21 -88 55 -125 76 -38
20 -68 43 -68 50 0 8 -21 54 -46 102 -46 90 -127 182 -219 249 -22 16 -49 38
-60 48 -11 10 -32 26 -48 35 -36 22 -41 41 -23 93 25 75 24 94 -3 97 -13 2
-33 -1 -45 -6 -20 -9 -47 -20 -71 -28 -5 -2 -23 -7 -38 -10 l-29 -7 16 30 c12
24 13 34 3 46 -10 14 -17 15 -47 4 -19 -7 -42 -17 -50 -22 -26 -17 -62 -35
-70 -35 -5 0 1 17 13 38 21 39 19 72 -5 72 -7 0 -40 -13 -73 -28z"/>
</g>
</svg>
