<?xml version="1.0" standalone="no"?>
<!DOCTYPE svg PUBLIC "-//W3C//DTD SVG 20010904//EN"
 "http://www.w3.org/TR/2001/REC-SVG-20010904/DTD/svg10.dtd">
<svg version="1.0" xmlns="http://www.w3.org/2000/svg"
 width="560.000000pt" height="560.000000pt" viewBox="0 0 560.000000 560.000000"
 preserveAspectRatio="xMidYMid meet">
<metadata>
Created by potrace 1.14, written by Peter Selinger 2001-2017
</metadata>
<g transform="translate(0.000000,560.000000) scale(0.100000,-0.100000)"
fill="#000000" stroke="none">
<path d="M3099 5235 c-26 -13 -82 -33 -125 -44 -86 -22 -212 -40 -474 -68
-166 -17 -343 -86 -485 -188 -132 -95 -216 -193 -280 -326 -34 -71 -34 -71
-134 -129 -333 -192 -629 -478 -836 -805 -76 -120 -185 -345 -230 -475 -36
-106 -88 -301 -99 -375 -3 -22 -8 -51 -11 -65 -23 -112 -28 -545 -7 -675 8
-44 16 -93 18 -110 31 -188 111 -431 209 -630 366 -744 1077 -1244 1900 -1334
86 -10 498 -7 555 3 19 4 76 13 125 22 771 131 1455 670 1774 1399 75 171 139
379 166 543 3 17 7 44 10 60 27 150 28 555 2 717 -103 621 -420 1164 -898
1537 -87 68 -271 189 -346 227 -24 12 -43 28 -43 36 0 31 -90 186 -136 235
-27 29 -100 92 -161 141 -62 49 -113 96 -113 104 0 8 8 36 18 62 25 65 19 86
-21 80 -18 -3 -62 -16 -99 -31 l-67 -25 13 31 c15 34 10 68 -9 68 -7 0 -44
-16 -81 -35 -38 -19 -72 -35 -76 -35 -3 0 3 17 15 38 22 42 18 72 -10 72 -10
-1 -39 -12 -64 -25z"/>
</g>
</svg>
